<?xml version="1.0" encoding="UTF-8"?>
<!DOCTYPE svg PUBLIC "-//W3C//DTD SVG 1.1//EN" "http://www.w3.org/Graphics/SVG/1.1/DTD/svg11.dtd">
<!-- Creator: CorelDRAW 2020 (64-Bit) -->
<svg xmlns="http://www.w3.org/2000/svg" xml:space="preserve" width="76.2618mm" height="66.6494mm" version="1.1" style="shape-rendering:geometricPrecision; text-rendering:geometricPrecision; image-rendering:optimizeQuality; fill-rule:evenodd; clip-rule:evenodd"
viewBox="0 0 2342.17 2046.95"
 xmlns:xlink="http://www.w3.org/1999/xlink"
 xmlns:xodm="http://www.corel.com/coreldraw/odm/2003">
 <defs>
  <style type="text/css">
   <![CDATA[
    .str2 {stroke:#FEFEFE;stroke-width:26;stroke-miterlimit:22.9256}
    .str0 {stroke:#2B2A29;stroke-width:6.14;stroke-miterlimit:22.9256}
    .str1 {stroke:#FEFEFE;stroke-width:41.61;stroke-miterlimit:22.9256}
    .fil0 {fill:none}
    .fil6 {fill:#A72725}
    .fil2 {fill:#A42421}
    .fil1 {fill:#1F1B20}
    .fil3 {fill:#FEFEFE;fill-rule:nonzero}
    .fil5 {fill:#2B2A29;fill-rule:nonzero}
    .fil7 {fill:url(#id5);fill-rule:nonzero}
    .fil4 {fill:url(#id6);fill-rule:nonzero}
   ]]>
  </style>
    <clipPath id="id0">
     <path d="M-0 0l2342.17 0 0 2046.95 -2342.17 0 0 -2046.95z"/>
    </clipPath>
   <mask id="id1">
  <linearGradient id="id2" gradientUnits="userSpaceOnUse" x1="845.79" y1="817.16" x2="1090.6" y2="1410.92">
   <stop offset="0" style="stop-opacity:0; stop-color:white"/>
   <stop offset="1" style="stop-opacity:1; stop-color:white"/>
  </linearGradient>
    <rect style="fill:url(#id2)" x="342.96" y="823.02" width="841.94" height="712.01"/>
   </mask>
   <mask id="id3">
  <linearGradient id="id4" gradientUnits="userSpaceOnUse" x1="1605.46" y1="1400.52" x2="1694.1" y2="689.06">
   <stop offset="0" style="stop-opacity:1; stop-color:white"/>
   <stop offset="1" style="stop-opacity:0; stop-color:white"/>
  </linearGradient>
    <rect style="fill:url(#id4)" x="1237.56" y="736.66" width="824.02" height="745.58"/>
   </mask>
  <linearGradient id="id5" gradientUnits="userSpaceOnUse" x1="1236.59" y1="932.34" x2="2060.27" y2="932.34">
   <stop offset="0" style="stop-opacity:1; stop-color:#816B69"/>
   <stop offset="1" style="stop-opacity:1; stop-color:snow"/>
  </linearGradient>
  <linearGradient id="id6" gradientUnits="userSpaceOnUse" xlink:href="#id5" x1="281.9" y1="977.01" x2="1184.9" y2="977.01">
  </linearGradient>
 </defs>
 <g id="Capa_x0020_1">
  <metadata id="CorelCorpID_0Corel-Layer"/>
  <g id="_2801615934304">
   <g style="clip-path:url(#id0)">
    <image x="-0" y="0" width="2342.17" height="2046.95" xlink:href="logo pagina web final anuncios_Images\logo pagina web final anuncios_ImgID1.png"/>
   </g>
  </g>
  <path class="fil0 str0" d="M1706.65 359.64c106.49,20.68 197.43,69.86 267.79,152.77 72.49,85.42 107.42,188.25 115.71,299.24 0.56,7.43 0.84,14.86 0.84,22.32 0,67.34 -14.81,135.24 -35.76,198.97 -25.81,78.51 -36.17,113.45 -83.63,181.17 -10.45,15.94 -3.14,27.7 -5.2,30.41 -122.22,348.44 -447.21,551.26 -759.29,551.26 -312.08,0 -556.78,-121.09 -703.79,-308.68 -0.26,0.38 -48.09,53.03 -72.87,65.72l-0.52 0.27 -0.53 0.25c-13.88,6.45 -28.77,11.02 -44.12,11.85 -7.21,0.38 -14.39,0.59 -21.61,0.59 -14.46,0 -29.35,-1.43 -42.87,-6.85l-1.5 -0.6 -1.43 -0.76c-44.51,-23.53 -66.67,-62.94 -66.67,-113.02l0 -7.67 0.02 -0.55c0.95,-26.35 16.31,-56.53 29.22,-79 11.34,-19.74 23.93,-39.06 36.49,-58.04 18.81,-28.43 24.26,-36.51 43.74,-64.48 3.23,-4.63 6.12,-8.84 9.35,-13.47 -158.82,-569.66 353.44,-980.51 795.49,-970.11 281.73,6.63 305.8,48.07 419.77,105.27 28.36,-5.43 25.1,-3.45 53.92,-3.45 22.67,0 45.21,2.32 67.46,6.64z"/>
  <path class="fil0 str1" d="M1170.33 271.88c446.43,0 808.33,337.05 808.33,752.84 0,415.79 -361.89,752.84 -808.33,752.84 -446.43,0 -808.33,-337.05 -808.33,-752.84 0,-415.79 361.89,-752.84 808.33,-752.84z"/>
  <ellipse class="fil1 str2" cx="1170.33" cy="1024.72" rx="721.16" ry="671.65"/>
  <g id="_2801615939392">
   <path class="fil2" d="M1100.03 437.54c21.89,21.36 37.26,47.83 47.78,76.4 14.4,39.14 20.93,88.69 25.5,130.02 8.8,79.55 13.96,160.31 19,240.18 5.84,92.47 11.79,184.94 17.24,277.44 1.64,27.79 3.22,55.6 4.51,83.41 0.75,16.11 1.55,32.45 1.55,48.57 0,12.4 0,24.79 0,37.19 0,19.33 -0.25,41.29 -3.79,60.32l-0.12 0.65 -0.15 0.65c-3.65,15.78 -8.87,31.27 -16.41,45.64 -13.83,26.35 -33.61,53.9 -63.76,62.34 -13.36,3.74 -29.64,7.98 -43.55,7.98 -24.59,0 -47.49,-8.55 -67.64,-22.3l-0.37 -0.25 -0.36 -0.26c-14.3,-10.37 -25.94,-23.4 -35.82,-37.98 -12.32,-18.16 -22.37,-40.09 -31.16,-60.17l-0.33 -0.77c-6.7,-16.5 -17.4,-37.92 -31.77,-49.16 -11.8,-9.24 -27.14,-11.79 -41.77,-11.79 -6.71,0 -14.93,1.38 -21.56,2.41 -14.69,2.29 -29.37,5.18 -43.93,8.16 -37.48,7.69 -74.84,15.9 -111.97,25.14 -29.84,7.43 -59.93,15.46 -89.15,25.09 -17.77,5.85 -34.59,14.4 -48.58,26.05 -17.82,15.41 -34.01,37.36 -47.24,56.73 -21.9,32.04 -50.66,65.62 -85.75,83.57l-0.52 0.27 -0.53 0.25c-13.88,6.45 -28.77,11.02 -44.12,11.85 -7.21,0.38 -14.39,0.59 -21.61,0.59 -14.46,0 -29.35,-1.43 -42.87,-6.85l-1.5 -0.6 -1.43 -0.76c-44.51,-23.53 -66.67,-62.94 -66.67,-113.02l0 -7.67 0.02 -0.55c0.95,-26.35 16.31,-56.53 29.22,-79 11.34,-19.74 23.93,-39.06 36.49,-58.04 18.81,-28.43 38.16,-56.54 57.65,-84.51 82.93,-119.05 163.95,-239.44 243.76,-360.6 71.49,-108.52 142.26,-217.76 210.34,-328.46 9.81,-15.96 19.75,-31.86 30.14,-47.45 7.29,-10.92 14.83,-21.99 22.87,-32.37l0.28 -0.36 0.28 -0.35c20.23,-24.61 49.59,-54.92 83.69,-56.04 8.98,-0.29 18.3,-0.85 27.27,-0.85 42.37,0 77.83,19.18 106.84,49.26zm-316.17 717.85c24.42,-3.4 57.99,-8.98 80.4,-19.7 11.84,-5.66 21.16,-13.79 26.94,-25.65 5.15,-10.58 6.86,-23.49 7.02,-35.14 0.37,-26.6 -4.4,-57.75 -8.16,-84.1 -3.35,-23.42 -7.1,-46.92 -11.93,-70.08 -3.08,-14.76 -6.65,-30.29 -11.75,-44.49 -1.91,-5.32 -9.22,-23.47 -14.68,-26.3l-1.34 -0.51 -1.34 -0.67c-1.13,-0.56 -1.97,-0.87 -3.22,-0.87 -9.2,0 -24.26,15.6 -29.65,21.77 -15.04,17.21 -28.46,38.99 -40.05,58.63 -19.4,32.89 -37.06,67.14 -54.01,101.35 -7.96,16.07 -15.86,32.31 -23.04,48.75 -3.52,8.06 -7.84,17.81 -9.99,26.34 -1.64,6.5 -4.8,18.36 -4.8,25.03 0,3.44 0.41,7.25 2.06,10.33l0.29 0.53 0.27 0.55c2.9,5.93 8.71,10.37 14.32,13.54 7.66,4.33 15.69,6.97 24.54,6.97 6.93,0 15.41,-1.23 22.33,-2 11.95,-1.32 23.9,-2.62 35.8,-4.28z"/>
  </g>
  <path class="fil3" d="M332.21 1530.38c-33.62,-17.77 -50.31,-46.22 -50.31,-85.87l0 -7.11c0.54,-15.04 9.03,-36.63 25.16,-64.81 16.41,-28.43 47.31,-75.2 92.71,-140.29 79.58,-114.3 160.79,-234.63 244.21,-361.26 83.41,-126.61 153.7,-236.55 210.86,-329.26 10.12,-16.67 19.96,-32.27 29.53,-46.49 9.58,-14.48 16.96,-24.61 21.61,-30.62 24.05,-29.26 44.3,-44.3 60.97,-44.85 16.42,-0.54 25.45,-0.83 26.26,-0.83 31.18,0 59.34,13.41 85.06,40.21 17.5,16.96 31.16,38.84 40.74,65.35 9.85,26.26 17.5,67.29 23.8,122.79 6.01,55.79 12.31,135.37 18.88,238.74 7.38,117.6 13.12,210.04 17.23,277.31 3.82,67.27 6.01,110.75 6.01,130.17 0,19.42 0,32 0,37.19 0,24.61 -1.08,42.94 -3.27,54.69 -3.3,14.23 -7.66,27.07 -13.68,38.3 -13.93,26.8 -28.7,42.38 -44.85,47.04 -16.14,4.38 -27.89,6.84 -35.27,6.84 -16.96,0 -33.91,-5.76 -50.33,-16.96 -10.93,-7.93 -20.23,-18.04 -28.43,-30.35 -8.49,-12.31 -17.79,-30.91 -28.45,-55.25 -11.76,-28.99 -25.7,-49.5 -41.3,-61.8 -15.85,-12.31 -36.09,-18.31 -60.7,-18.31 -11.22,0 -35.02,3.55 -71.67,11.2 -36.63,7.38 -74.38,15.87 -113.22,25.43 -39.09,9.85 -69.46,18.33 -91.34,25.72 -22.96,7.38 -42.66,18.31 -59.07,32 -16.12,13.95 -33.62,34.73 -52.5,62.62 -25.43,36.92 -50.33,61.26 -74.38,73.57 -11.76,5.46 -22.71,8.49 -32.83,9.03 -10.12,0.54 -16.96,0.54 -19.96,0.54 -12.85,0 -23.23,-1.36 -31.45,-4.65zm455.89 -344.58c40.74,-5.73 70.54,-13.39 89.42,-22.42 18.88,-9.03 32.81,-22.42 41.3,-39.92 6.28,-12.85 9.84,-28.99 10.12,-48.14 0.27,-19.42 -2.73,-48.95 -8.47,-88.88 -7.95,-55.79 -16.42,-95.99 -25.17,-120.6 -9.01,-24.88 -19.69,-39.65 -32.54,-44.57 -5.47,-2.73 -10.93,-4.11 -16.96,-4.11 -16.39,0 -34.19,10.95 -52.77,32.27 -25.16,28.72 -57.98,84.25 -98.45,166.55 -19.96,39.65 -31.73,66.73 -35.29,81.22 -3.82,14.77 -5.73,25.72 -5.73,32.54 0,9.57 1.92,17.79 5.73,24.88 5.21,10.68 14.23,19.69 26.8,26.8 12.58,7.11 25.72,10.95 39.65,10.95 4.65,0 13.41,-0.84 25.72,-2.19 12.31,-1.38 24.34,-2.73 36.65,-4.38z"/>
  <path class="fil4" d="M332.21 1530.38c-33.62,-17.77 -50.31,-46.22 -50.31,-85.87l0 -7.11c0.54,-15.04 9.03,-36.63 25.16,-64.81 16.41,-28.43 47.31,-75.2 92.71,-140.29 79.58,-114.3 160.79,-234.63 244.21,-361.26 83.41,-126.61 153.7,-236.55 210.86,-329.26 10.12,-16.67 19.96,-32.27 29.53,-46.49 9.58,-14.48 16.96,-24.61 21.61,-30.62 24.05,-29.26 44.3,-44.3 60.97,-44.85 16.42,-0.54 25.45,-0.83 26.26,-0.83 31.18,0 59.34,13.41 85.06,40.21 17.5,16.96 31.16,38.84 40.74,65.35 9.85,26.26 17.5,67.29 23.8,122.79 6.01,55.79 12.31,135.37 18.88,238.74 7.38,117.6 13.12,210.04 17.23,277.31 3.82,67.27 6.01,110.75 6.01,130.17 0,19.42 0,32 0,37.19 0,24.61 -1.08,42.94 -3.27,54.69 -3.3,14.23 -7.66,27.07 -13.68,38.3 -13.93,26.8 -28.7,42.38 -44.85,47.04 -16.14,4.38 -27.89,6.84 -35.27,6.84 -16.96,0 -33.91,-5.76 -50.33,-16.96 -10.93,-7.93 -20.23,-18.04 -28.43,-30.35 -8.49,-12.31 -17.79,-30.91 -28.45,-55.25 -11.76,-28.99 -25.7,-49.5 -41.3,-61.8 -15.85,-12.31 -36.09,-18.31 -60.7,-18.31 -11.22,0 -35.02,3.55 -71.67,11.2 -36.63,7.38 -74.38,15.87 -113.22,25.43 -39.09,9.85 -69.46,18.33 -91.34,25.72 -22.96,7.38 -42.66,18.31 -59.07,32 -16.12,13.95 -33.62,34.73 -52.5,62.62 -25.43,36.92 -50.33,61.26 -74.38,73.57 -11.76,5.46 -22.71,8.49 -32.83,9.03 -10.12,0.54 -16.96,0.54 -19.96,0.54 -12.85,0 -23.23,-1.36 -31.45,-4.65zm455.89 -344.58c40.74,-5.73 70.54,-13.39 89.42,-22.42 18.88,-9.03 32.81,-22.42 41.3,-39.92 6.28,-12.85 9.84,-28.99 10.12,-48.14 0.27,-19.42 -2.73,-48.95 -8.47,-88.88 -7.95,-55.79 -16.42,-95.99 -25.17,-120.6 -9.01,-24.88 -19.69,-39.65 -32.54,-44.57 -5.47,-2.73 -10.93,-4.11 -16.96,-4.11 -16.39,0 -34.19,10.95 -52.77,32.27 -25.16,28.72 -57.98,84.25 -98.45,166.55 -19.96,39.65 -31.73,66.73 -35.29,81.22 -3.82,14.77 -5.73,25.72 -5.73,32.54 0,9.57 1.92,17.79 5.73,24.88 5.21,10.68 14.23,19.69 26.8,26.8 12.58,7.11 25.72,10.95 39.65,10.95 4.65,0 13.41,-0.84 25.72,-2.19 12.31,-1.38 24.34,-2.73 36.65,-4.38z"/>
  <path class="fil5" style="mask:url(#id1)" d="M1157.49 823.02c1.38,19.93 2.77,40.95 4.18,63.06 7.38,117.6 13.12,210.04 17.23,277.31 3.82,67.27 6.01,110.75 6.01,130.17 0,19.42 0,32 0,37.19 0,24.61 -1.08,42.94 -3.27,54.69 -3.3,14.23 -7.66,27.07 -13.68,38.3 -13.93,26.8 -28.7,42.38 -44.85,47.04 -16.14,4.38 -27.89,6.84 -35.27,6.84 -16.96,0 -33.91,-5.76 -50.33,-16.96 -10.93,-7.93 -20.23,-18.04 -28.43,-30.35 -8.49,-12.31 -17.79,-30.91 -28.45,-55.25 -11.76,-28.99 -25.7,-49.5 -41.3,-61.8 -15.85,-12.31 -36.09,-18.31 -60.7,-18.31 -11.22,0 -35.02,3.55 -71.67,11.2 -36.63,7.38 -74.38,15.87 -113.22,25.43 -39.09,9.85 -69.46,18.33 -91.34,25.72 -22.96,7.38 -42.66,18.31 -59.07,32 -16.12,13.95 -33.62,34.73 -52.5,62.62 -25.43,36.92 -50.33,61.26 -74.38,73.57 -11.76,5.46 -22.71,8.49 -32.83,9.03 -10.12,0.54 -16.96,0.54 -19.96,0.54 -7.78,0 -14.66,-0.5 -20.7,-1.62 74.52,-155.78 180.83,-296.06 311.53,-413.95 -0.63,4.09 -0.94,7.52 -0.94,10.28 0,9.57 1.92,17.79 5.73,24.88 5.21,10.68 14.23,19.69 26.8,26.8 12.58,7.11 25.72,10.95 39.65,10.95 4.65,0 13.41,-0.84 25.72,-2.19 12.31,-1.38 24.34,-2.73 36.65,-4.38 40.74,-5.73 70.54,-13.39 89.42,-22.42 18.88,-9.03 32.81,-22.42 41.3,-39.92 6.28,-12.85 9.84,-28.99 10.12,-48.14 0.27,-19.42 -2.73,-48.95 -8.47,-88.88 -2.74,-19.26 -5.55,-36.66 -8.41,-52.2 77.29,-43.75 159.39,-81.09 245.43,-111.23z"/>
  <g id="_2801615947024">
   <path class="fil6" d="M1241.97 498.96c12.54,-25.96 30.56,-48.13 55.2,-63.49 25.94,-16.17 57.27,-25.03 87.19,-30.07 13.46,-2.27 27.03,-5.67 40.24,-9.09 15.54,-4.03 31,-8.32 46.44,-12.75 53.96,-18.33 110.97,-30.56 168.15,-30.56 22.67,0 45.21,2.32 67.46,6.64 106.49,20.68 197.43,69.86 267.79,152.77 72.49,85.42 107.42,188.25 115.71,299.24 0.56,7.43 0.84,14.86 0.84,22.32 0,67.34 -14.81,135.24 -35.76,198.97 -25.81,78.51 -62.03,152.77 -109.49,220.48l-0.34 0.48c-91.78,125.78 -211.88,212.41 -363.76,248.56l-0.43 0.1 -0.43 0.09c-23.36,4.86 -47.38,6.98 -71.2,7.73 -18.28,0.57 -36.54,0.9 -54.82,1.28l-0.53 0.01 -0.53 -0.01c-18.23,-0.24 -36.7,-0.51 -54.84,-2.45 -15.28,-1.64 -32.16,-4.09 -46.04,-8.85 -13.84,-4.37 -26.43,-12.19 -37.24,-21.78 -23.44,-20.81 -36.43,-49.33 -43.08,-79.49l-0.18 -0.85c-3.78,-19.79 -6.05,-41.19 -8.43,-61.2 -4.54,-38.1 -8.62,-76.28 -12.72,-114.43 -4.81,-44.7 -9.8,-89.37 -14.69,-134.06 -3.87,-35.39 -7.67,-70.81 -11.89,-106.16 -10.55,-88.14 -18.72,-178.48 -18.72,-267.32 0,-65.05 4.28,-157.61 36.1,-216.09zm555.91 550.19c9.75,-31.5 14.66,-64.09 14.66,-97.05 0,-34.43 -5.51,-68.48 -15.02,-101.53 -18.47,-64.12 -51.1,-119.65 -103.43,-161.52 -17.6,-12.74 -57.44,-40.28 -78.97,-42.58 -11.22,-1.2 -25.06,-3.13 -36.29,-3.13 -15.95,0 -30.68,3.42 -39.69,16.51 -3.26,4.98 -5.68,10.27 -7.12,15.43 -2.79,10.84 -3.97,23.23 -4.68,34.37 -1.66,25.92 -3.05,51.81 -4,77.76 -2.93,79.63 -9.9,159.37 -18.69,238.55 -4.64,41.86 -9.19,83.81 -12.85,125.78 -2.02,23.23 -3.95,47.29 -3.95,70.62 0,8.19 0.28,20.95 2.57,28.06 1.56,4.43 3.88,8.51 7.07,11.97l0.71 0.77 0.65 0.81c9.46,11.78 22.08,15.38 36.88,15.38 17.22,0 35.33,-4.55 51.49,-10.2 48.99,-17.1 90.83,-46.43 126.62,-83.77 37.76,-39.39 65.79,-84.81 84.04,-136.24z"/>
  </g>
  <path class="fil3" d="M1402.15 1478.66c-17.75,-2.03 -31.19,-4.56 -40.06,-7.6 -8.88,-2.8 -17.75,-8.12 -26.11,-15.47 -16.22,-14.46 -27.38,-35.5 -33.47,-63.13 -1.26,-6.59 -4.06,-26.1 -8.1,-59.07 -3.81,-32.95 -8.12,-70.98 -12.68,-114.08 -4.82,-44.11 -9.88,-88.73 -14.7,-134.11 -5.09,-45.11 -8.88,-80.61 -11.93,-106.47 -12.41,-103.45 -18.5,-191.41 -18.5,-263.67 0,-95.08 10.91,-162.5 32.71,-202.06 10.89,-22.82 25.6,-40.05 44.11,-51.45 18.5,-11.66 43.85,-20.29 76.05,-25.85 11.41,-1.78 25.62,-5.09 42.85,-9.65 17,-4.31 32.97,-8.87 47.92,-13.17 57.29,-19.53 110.27,-29.16 158.96,-29.16 21.29,0 41.82,2.03 61.61,6.07 102.93,19.78 186.33,67.19 250.23,142.49 63.89,75.29 100.13,169.1 108.5,281.65 0.5,6.34 0.76,12.93 0.76,20.03 0,56.79 -11.41,119.92 -34.23,189.38 -25.35,77.08 -60.33,148.06 -105.46,212.45 -91.02,124.73 -206.61,203.59 -346.06,236.79 -19.51,4.06 -41.32,6.34 -65.9,7.1 -24.34,0.77 -42.6,1.02 -54.51,1.27 -19.28,-0.25 -36.51,-0.75 -51.97,-2.28zm195.2 -180.5c51.73,-18.25 97.86,-48.94 138.68,-91.52 40.82,-42.59 71.24,-91.79 91.02,-147.81 10.91,-35 16.23,-70.73 16.23,-106.73 0,-36.26 -5.32,-73.01 -16.23,-110.02 -21.29,-74.79 -59.58,-133.86 -114.34,-177.47 -41.57,-30.16 -73.01,-46.39 -94.3,-48.67 -21.31,-2.28 -34.48,-3.3 -39.56,-3.3 -29.66,0 -51.46,10.15 -65.4,30.42 -4.82,7.36 -8.62,15.47 -11.16,24.59 -2.28,8.88 -4.31,22.06 -5.59,40.06 -1.01,17.75 -2.53,44.11 -4.04,78.58 -2.28,68.45 -8.62,147.05 -18.52,236.29 -5.82,52.48 -10.14,94.55 -12.92,126.5 -2.79,31.94 -4.06,56.54 -4.06,73.28 0,16.73 1.53,29.66 4.31,38.27 3.04,8.62 7.6,16.22 13.44,22.56 14.44,18 34.73,26.88 60.83,26.88 18,0 38.54,-4.06 61.61,-11.91z"/>
  <path class="fil7" d="M1402.15 1478.66c-17.75,-2.03 -31.19,-4.56 -40.06,-7.6 -8.88,-2.8 -17.75,-8.12 -26.11,-15.47 -16.22,-14.46 -27.38,-35.5 -33.47,-63.13 -1.26,-6.59 -4.06,-26.1 -8.1,-59.07 -3.81,-32.95 -8.12,-70.98 -12.68,-114.08 -4.82,-44.11 -9.88,-88.73 -14.7,-134.11 -5.09,-45.11 -8.88,-80.61 -11.93,-106.47 -12.41,-103.45 -18.5,-191.41 -18.5,-263.67 0,-95.08 10.91,-162.5 32.71,-202.06 10.89,-22.82 25.6,-40.05 44.11,-51.45 18.5,-11.66 43.85,-20.29 76.05,-25.85 11.41,-1.78 25.62,-5.09 42.85,-9.65 17,-4.31 32.97,-8.87 47.92,-13.17 57.29,-19.53 110.27,-29.16 158.96,-29.16 21.29,0 41.82,2.03 61.61,6.07 102.93,19.78 186.33,67.19 250.23,142.49 63.89,75.29 100.13,169.1 108.5,281.65 0.5,6.34 0.76,12.93 0.76,20.03 0,56.79 -11.41,119.92 -34.23,189.38 -25.35,77.08 -60.33,148.06 -105.46,212.45 -91.02,124.73 -206.61,203.59 -346.06,236.79 -19.51,4.06 -41.32,6.34 -65.9,7.1 -24.34,0.77 -42.6,1.02 -54.51,1.27 -19.28,-0.25 -36.51,-0.75 -51.97,-2.28zm195.2 -180.5c51.73,-18.25 97.86,-48.94 138.68,-91.52 40.82,-42.59 71.24,-91.79 91.02,-147.81 10.91,-35 16.23,-70.73 16.23,-106.73 0,-36.26 -5.32,-73.01 -16.23,-110.02 -21.29,-74.79 -59.58,-133.86 -114.34,-177.47 -41.57,-30.16 -73.01,-46.39 -94.3,-48.67 -21.31,-2.28 -34.48,-3.3 -39.56,-3.3 -29.66,0 -51.46,10.15 -65.4,30.42 -4.82,7.36 -8.62,15.47 -11.16,24.59 -2.28,8.88 -4.31,22.06 -5.59,40.06 -1.01,17.75 -2.53,44.11 -4.04,78.58 -2.28,68.45 -8.62,147.05 -18.52,236.29 -5.82,52.48 -10.14,94.55 -12.92,126.5 -2.79,31.94 -4.06,56.54 -4.06,73.28 0,16.73 1.53,29.66 4.31,38.27 3.04,8.62 7.6,16.22 13.44,22.56 14.44,18 34.73,26.88 60.83,26.88 18,0 38.54,-4.06 61.61,-11.91z"/>
  <path class="fil5" style="mask:url(#id3)" d="M1402.15 1478.66c-17.75,-2.03 -31.19,-4.56 -40.06,-7.6 -8.88,-2.8 -17.75,-8.12 -26.11,-15.47 -16.22,-14.46 -27.38,-35.5 -33.47,-63.13 -1.26,-6.59 -4.06,-26.1 -8.1,-59.07 -3.81,-32.95 -8.12,-70.98 -12.68,-114.08 -4.82,-44.11 -9.88,-88.73 -14.7,-134.11 -5.09,-45.11 -8.88,-80.61 -11.93,-106.47 -8.05,-67.11 -13.44,-127.7 -16.24,-181.72 82.34,-23.82 167.82,-41.2 255.76,-51.43 -0.62,11.98 -1.29,25.56 -1.95,40.72 -2.28,68.45 -8.62,147.05 -18.52,236.29 -5.82,52.48 -10.14,94.55 -12.92,126.5 -2.79,31.94 -4.06,56.54 -4.06,73.28 0,16.73 1.53,29.66 4.31,38.27 3.04,8.62 7.6,16.22 13.44,22.56 14.44,18 34.73,26.88 60.83,26.88 18,0 38.54,-4.06 61.61,-11.91 51.73,-18.25 97.86,-48.94 138.68,-91.52 40.82,-42.6 71.24,-91.79 91.02,-147.81 10.91,-35 16.22,-70.73 16.22,-106.73 0,-36.26 -5.32,-73.01 -16.22,-110.02 -11.09,-38.96 -26.8,-73.65 -47.04,-104.12 94.75,5.82 187.03,19.81 275.98,41.31 1.48,11.35 2.67,22.9 3.54,34.66 0.5,6.34 0.76,12.93 0.76,20.03 0,56.79 -11.41,119.92 -34.23,189.38 -25.35,77.08 -60.33,148.06 -105.46,212.45 -91.02,124.73 -206.61,203.59 -346.06,236.79 -19.51,4.06 -41.32,6.34 -65.9,7.1 -24.34,0.77 -42.6,1.02 -54.51,1.27 -19.28,-0.25 -36.51,-0.75 -51.97,-2.28z"/>
 </g>
</svg>
